<mxfile host="65bd71144e">
    <diagram id="ACZbC87dbtx6h9865CHy" name="Page-1">
        <mxGraphModel dx="557" dy="509" grid="1" gridSize="10" guides="1" tooltips="1" connect="1" arrows="1" fold="1" page="1" pageScale="1" pageWidth="850" pageHeight="1100" math="0" shadow="0">
            <root>
                <mxCell id="0"/>
                <mxCell id="1" parent="0"/>
                <mxCell id="2" value="Devolucion" style="swimlane;fontStyle=1;align=center;verticalAlign=top;childLayout=stackLayout;horizontal=1;startSize=26;horizontalStack=0;resizeParent=1;resizeParentMax=0;resizeLast=0;collapsible=1;marginBottom=0;" parent="1" vertex="1">
                    <mxGeometry x="30" y="270" width="360" height="340" as="geometry"/>
                </mxCell>
                <mxCell id="3" value="&#10;- cantidadprestada : double&#10;- cantidaddevuelta : double&#10;- semanapagada : double&#10;- semanasapagar : double&#10;" style="text;strokeColor=none;fillColor=default;align=left;verticalAlign=top;spacingLeft=4;spacingRight=4;overflow=hidden;rotatable=0;points=[[0,0.5],[1,0.5]];portConstraint=eastwest;" parent="2" vertex="1">
                    <mxGeometry y="26" width="360" height="114" as="geometry"/>
                </mxCell>
                <mxCell id="4" value="" style="line;strokeWidth=1;fillColor=none;align=left;verticalAlign=middle;spacingTop=-1;spacingLeft=3;spacingRight=3;rotatable=0;labelPosition=right;points=[];portConstraint=eastwest;strokeColor=inherit;" parent="2" vertex="1">
                    <mxGeometry y="140" width="360" height="8" as="geometry"/>
                </mxCell>
                <mxCell id="5" value="+ Devolucion ()&#10;+setCantidadprestada (cantidadprestada : double)&#10;+setCantidaddevuelta (cantidaddevuelta : double)&#10;+setSenmanapagada (semanapagada : double)&#10;+setSemanasapagar (semanasapagar : double)&#10;+getCantidadprestada () : double&#10;+getCantidaddevuelta () : double&#10;+getSenmanapagada () : double&#10;+getSemanasapagar () : double&#10;+SemanasRestantes() : double&#10;+SaldoRestante() : double&#10;+tostring() : string" style="text;strokeColor=none;fillColor=default;align=left;verticalAlign=top;spacingLeft=4;spacingRight=4;overflow=hidden;rotatable=0;points=[[0,0.5],[1,0.5]];portConstraint=eastwest;" parent="2" vertex="1">
                    <mxGeometry y="148" width="360" height="192" as="geometry"/>
                </mxCell>
                <mxCell id="10" style="edgeStyle=none;html=1;entryX=0.5;entryY=0;entryDx=0;entryDy=0;" parent="1" source="6" target="2" edge="1">
                    <mxGeometry relative="1" as="geometry"/>
                </mxCell>
                <mxCell id="6" value="Acredor" style="swimlane;fontStyle=1;align=center;verticalAlign=top;childLayout=stackLayout;horizontal=1;startSize=26;horizontalStack=0;resizeParent=1;resizeParentMax=0;resizeLast=0;collapsible=1;marginBottom=0;" parent="1" vertex="1">
                    <mxGeometry x="350" y="10" width="230" height="230" as="geometry"/>
                </mxCell>
                <mxCell id="7" value="- nombre : string&#10;- clave : int&#10;- fecha : string" style="text;strokeColor=none;fillColor=default;align=left;verticalAlign=top;spacingLeft=4;spacingRight=4;overflow=hidden;rotatable=0;points=[[0,0.5],[1,0.5]];portConstraint=eastwest;" parent="6" vertex="1">
                    <mxGeometry y="26" width="230" height="74" as="geometry"/>
                </mxCell>
                <mxCell id="8" value="" style="line;strokeWidth=1;fillColor=none;align=left;verticalAlign=middle;spacingTop=-1;spacingLeft=3;spacingRight=3;rotatable=0;labelPosition=right;points=[];portConstraint=eastwest;strokeColor=inherit;" parent="6" vertex="1">
                    <mxGeometry y="100" width="230" height="8" as="geometry"/>
                </mxCell>
                <mxCell id="9" value="+Acredor()&#10;+setNombre (nombre : string)&#10;+setClave (clave : string)&#10;+setFecha (fecha : string)&#10;+getNombre () : string&#10;+getClave () : string&#10;+getFecha () : string" style="text;strokeColor=none;fillColor=default;align=left;verticalAlign=top;spacingLeft=4;spacingRight=4;overflow=hidden;rotatable=0;points=[[0,0.5],[1,0.5]];portConstraint=eastwest;" parent="6" vertex="1">
                    <mxGeometry y="108" width="230" height="122" as="geometry"/>
                </mxCell>
                <mxCell id="16" value="Prestamo" style="swimlane;fontStyle=1;align=center;verticalAlign=top;childLayout=stackLayout;horizontal=1;startSize=26;horizontalStack=0;resizeParent=1;resizeParentMax=0;resizeLast=0;collapsible=1;marginBottom=0;" parent="1" vertex="1">
                    <mxGeometry x="500" y="295" width="340" height="290" as="geometry"/>
                </mxCell>
                <mxCell id="17" value="-cantidadPrestada : double&#10;-cantidadDeInteres : double&#10;-cantidadDeSemana : double" style="text;strokeColor=none;fillColor=default;align=left;verticalAlign=top;spacingLeft=4;spacingRight=4;overflow=hidden;rotatable=0;points=[[0,0.5],[1,0.5]];portConstraint=eastwest;" parent="16" vertex="1">
                    <mxGeometry y="26" width="340" height="94" as="geometry"/>
                </mxCell>
                <mxCell id="18" value="" style="line;strokeWidth=1;fillColor=none;align=left;verticalAlign=middle;spacingTop=-1;spacingLeft=3;spacingRight=3;rotatable=0;labelPosition=right;points=[];portConstraint=eastwest;strokeColor=inherit;" parent="16" vertex="1">
                    <mxGeometry y="120" width="340" height="8" as="geometry"/>
                </mxCell>
                <mxCell id="19" value="+Prestamo()&#10;+setCantidaPrestada (cantidadPrestada : double)&#10;+setCantidadDeInteres (cantidadDeInteres : double)&#10;+setCantidadDeSemana (cantidadDeSemana : double)&#10;+getCantidadPrestada() : double&#10;+getCantidadDeInteres() : double&#10;+getCantidadDeSemana() : double&#10;+Interes() : double&#10;+PrestamoTotal : double&#10;+DatosDelPrestamo : double&#10;" style="text;strokeColor=none;fillColor=default;align=left;verticalAlign=top;spacingLeft=4;spacingRight=4;overflow=hidden;rotatable=0;points=[[0,0.5],[1,0.5]];portConstraint=eastwest;" parent="16" vertex="1">
                    <mxGeometry y="128" width="340" height="162" as="geometry"/>
                </mxCell>
                <mxCell id="20" style="edgeStyle=none;html=1;entryX=0.5;entryY=0;entryDx=0;entryDy=0;exitX=1;exitY=0.5;exitDx=0;exitDy=0;" parent="1" source="9" target="16" edge="1">
                    <mxGeometry relative="1" as="geometry"/>
                </mxCell>
            </root>
        </mxGraphModel>
    </diagram>
</mxfile>